<svg xmlns="http://www.w3.org/2000/svg" viewBox="0 0 420 320" role="img" aria-label="Financial freedom illustration">
  <rect width="420" height="320" rx="28" fill="#f6f7fb"/>
  <circle cx="120" cy="228" r="54" fill="#ffd94e"/>
  <circle cx="166" cy="228" r="54" fill="#ffd94e" opacity=".85"/>
  <circle cx="212" cy="228" r="54" fill="#ffd94e" opacity=".7"/>
  <circle cx="258" cy="228" r="54" fill="#ffd94e" opacity=".55"/>
  <path d="M102 140c18-20 44-26 66-12 18 11 28 34 28 58-1 30-16 60-43 74-34 17-76 1-84-38-7-32 10-58 33-82z" fill="#2f74ff"/>
  <path d="M192 130c18 20 44 26 66 12 18-11 28-34 28-58-1-30-16-60-43-74-34-17-76-1-84 38-7 32 10 58 33 82z" fill="#70e55a"/>
  <circle cx="146" cy="126" r="24" fill="#111"/>
  <circle cx="232" cy="126" r="24" fill="#111"/>
  <circle cx="146" cy="126" r="10" fill="#fff"/>
  <circle cx="232" cy="126" r="10" fill="#fff"/>
  <path d="M108 72l18 16 24-4-10 22 14 20-24-2-16 18-6-24-22-10 21-10z" fill="#ffcf5b"/>
  <path d="M290 86l16 14 22-4-10 20 12 18-22-2-15 16-5-22-20-9 18-8z" fill="#ff8d2d"/>
  <path d="M320 230c18-22 40-30 60-25" fill="none" stroke="#1f66ff" stroke-width="10" stroke-linecap="round"/>
</svg>
